# xmcd
#
# Track frame offsets:
#	150
#	19636
#	36370
#	57279
#	79325
#	97239
#	109826
#	132850
#	147714
#	171887
#	193389
#
# Disc length: 2826 seconds
#
# Revision: 1
# Processed by: cddbd v1.4PL0 Copyright (c) Steve Scherf et al.
# Submitted via: audiograbber 1.82.02
#
DISCID=a60b080b
DTITLE=Lisa Marie - Nice To Know
DYEAR=1900
DGENRE=
TTITLE0=You're The One
TTITLE1=Have Your Way
TTITLE2=Jesus Come
TTITLE3=Lord Have Mercy
TTITLE4=Nice To Know
TTITLE5=I Have You
TTITLE6=Follow You
TTITLE7=Dear Lord
TTITLE8=Can You Hear Him-
TTITLE9=Be Still and Know
TTITLE10=All Of Me
EXTD=
EXTT0=
EXTT1=
EXTT2=
EXTT3=
EXTT4=
EXTT5=
EXTT6=
EXTT7=
EXTT8=
EXTT9=
EXTT10=
PLAYORDER=
